# xmcd
# Track frame offsets:
# 150
# 12739
# 24709
# 42498
# 57558
# 67530
# 78890
# 93167
# 108373
# 120241
#
# Disc length: 1798 seconds
# Revision: 0
# Processed by: cddbd v1.4PL0 Copyright (c) Steve Scherf et al.
# Submitted via: VisiTrax 2.9.5.180 - For more info visit www.synapsa.com
#
DISCID=7507040a
DTITLE=Billy McCoy - We are forever
DYEAR=1997
DGENRE=
TTITLE0=I have to hold the ring (and kiss the bride)
TTITLE1=Cajun fiddle man
TTITLE2=The hero the county laid to rest
TTITLE3=Ma cher a mio
TTITLE4=Baby's coming home
TTITLE5=Alice loves Ft. Worth
TTITLE6=We are forever
TTITLE7=Luisa
TTITLE8=Dancing the cowboy way
TTITLE9=Born again
EXTD=
EXTT0=
EXTT1=
EXTT2=
EXTT3=
EXTT4=
EXTT5=
EXTT6=
EXTT7=
EXTT8=
EXTT9=
PLAYORDER=
